<?xml version="1.0" encoding="utf-8"?>
<!-- Generator: Adobe Illustrator 23.0.1, SVG Export Plug-In . SVG Version: 6.00 Build 0)  -->
<svg version="1.1" xmlns="http://www.w3.org/2000/svg" xmlns:xlink="http://www.w3.org/1999/xlink" x="0px" y="0px"
	 viewBox="0 0 1366 768" style="enable-background:new 0 0 1366 768;" xml:space="preserve">
<style type="text/css">
	.st0{fill:#455A64;}
	.st1{fill:#FFFFFF;}
	.st2{fill:#673AB7;}
	.st3{fill:#03A9F4;}
	.st4{display:none;fill:#03A9F4;}
	.st5{fill:#4FC3F7;}
	.st6{display:none;fill:#64B5F6;}
	.st7{fill:#64B5F6;}
	.st8{display:none;fill:#1E88E5;}
	.st9{fill:#BBDEFB;}
	.st10{fill:#546E7A;}
	.st11{fill:#0D47A1;}
	.st12{fill:#4CAF50;}
	.st13{fill:#B39DDB;}
	.st14{fill:#78909C;}
	.st15{fill:#90CAF9;}
	.st16{fill:#B0BEC5;}
	.st17{fill:#FF9800;}
	.st18{fill:#43A047;}
	.st19{fill:#FFEB3B;}
	.st20{fill:#37474F;}
	.st21{fill:#CFD8DC;}
	.st22{fill:#90A4AE;}
	.st23{fill:#FFC107;}
	.st24{fill:#FFB300;}
	.st25{fill:#00B0FF;}
	.st26{display:none;fill:#FF9800;}
	.st27{fill:#FFCDD2;}
	.st28{fill:#FF3D00;}
	.st29{fill:#D1C4E9;}
	.st30{fill:#7E57C2;}
	.st31{fill:#311B92;}
</style>
<g id="Text">
	<g>
		<path class="st0" d="M49.08,120.17c-13.67,0-20.51-6.84-20.51-20.51V52.2c0-13.67,6.84-20.51,20.51-20.51h18.16
			c13.67,0,20.51,6.84,20.51,20.51v6.45l-11.13,5.27h-0.59V52.2c0-6.64-2.93-9.96-8.79-9.96H49.08c-5.86,0-8.79,3.32-8.79,9.96
			v47.46c0,6.64,2.93,9.96,8.79,9.96h18.16c5.86,0,8.79-3.32,8.79-9.96v-6.45l11.13-5.27h0.59v11.72c0,13.67-6.84,20.51-20.51,20.51
			H49.08z"/>
		<path class="st0" d="M125.84,120.17c-11.72,0-17.58-5.86-17.58-17.58V73.3c0-11.72,5.86-17.58,17.58-17.58h13.48
			c11.72,0,17.58,5.86,17.58,17.58v3.11l-36.74,28.41c0.55,3.21,2.44,4.81,5.68,4.81h13.48c3.91,0,5.86-2.34,5.86-7.03v-3.11
			l11.13-5.27h0.59v8.38c0,11.72-5.86,17.58-17.58,17.58H125.84z M119.98,92.57l25.14-19.43c-0.23-4.58-2.17-6.87-5.8-6.87h-13.48
			c-3.91,0-5.86,2.34-5.86,7.03V92.57z"/>
		<path class="st0" d="M192.05,120.17c-11.72,0-17.58-5.86-17.58-17.58V73.3c0-11.72,5.86-17.58,17.58-17.58h13.48
			c2.66,0,4.61,0.61,5.86,1.82V34.62l11.13-5.27h0.59v73.24c0,11.72-5.86,17.58-17.58,17.58H192.05z M192.05,109.62h13.48
			c3.91,0,5.86-2.34,5.86-7.03V73.3c0-4.69-1.95-7.03-5.86-7.03h-13.48c-3.91,0-5.86,2.34-5.86,7.03v29.3
			C186.19,107.28,188.14,109.62,192.05,109.62z"/>
		<path class="st0" d="M258.26,120.17c-11.72,0-17.58-5.86-17.58-17.58v-8.03c0-11.72,5.86-17.58,17.58-17.58h12.3
			c2.03,0,3.98,0.59,5.86,1.76V73.3c0-4.69-1.95-7.03-5.86-7.03h-20.98v-0.59l4.69-9.96h16.29c11.72,0,17.58,5.86,17.58,17.58v43.95
			l-11.13,5.27h-0.59v-4.1c-1.48,1.17-3.44,1.76-5.86,1.76H258.26z M258.26,109.62h12.3c3.91,0,5.86-2.34,5.86-7.03v-8.03
			c0-4.69-1.95-7.03-5.86-7.03h-12.3c-3.91,0-5.86,2.34-5.86,7.03v8.03C252.4,107.28,254.35,109.62,258.26,109.62z"/>
		<path class="st0" d="M305.72,122.51V73.3c0-11.72,5.86-17.58,17.58-17.58h14.65v0.59l-4.69,9.96h-9.96
			c-3.91,0-5.86,2.34-5.86,7.03v43.95l-11.13,5.27H305.72z"/>
		<path class="st0" d="M371.34,120.17c-13.67,0-20.51-6.84-20.51-20.51V52.2c0-13.67,6.84-20.51,20.51-20.51h18.16
			c13.67,0,20.51,6.84,20.51,20.51v6.45l-11.13,5.27h-0.59V52.2c0-6.64-2.93-9.96-8.79-9.96h-18.16c-5.86,0-8.79,3.32-8.79,9.96
			v47.46c0,6.64,2.93,9.96,8.79,9.96h18.16c5.86,0,8.79-3.32,8.79-9.96v-18.4h-20.39v-0.59l4.75-10.08h27.36v29.06
			c0,13.67-6.84,20.51-20.51,20.51H371.34z"/>
		<path class="st0" d="M430.52,122.51V73.3c0-11.72,5.86-17.58,17.58-17.58h14.65v0.59l-4.69,9.96h-9.96
			c-3.91,0-5.86,2.34-5.86,7.03v43.95l-11.13,5.27H430.52z"/>
		<path class="st0" d="M490.29,120.17c-11.72,0-17.58-5.86-17.58-17.58V73.3c0-11.72,5.86-17.58,17.58-17.58h13.48
			c11.72,0,17.58,5.86,17.58,17.58v29.3c0,11.72-5.86,17.58-17.58,17.58H490.29z M490.29,109.62h13.48c3.91,0,5.86-2.34,5.86-7.03
			V73.3c0-4.69-1.95-7.03-5.86-7.03h-13.48c-3.91,0-5.86,2.34-5.86,7.03v29.3C484.43,107.28,486.38,109.62,490.29,109.62z"/>
		<path class="st0" d="M556.5,120.17c-11.72,0-17.58-5.86-17.58-17.58V58.65l11.13-5.27h0.59v49.22c0,4.69,1.95,7.03,5.86,7.03
			h13.48c3.91,0,5.86-2.34,5.86-7.03V58.65l11.13-5.27h0.59v49.22c0,11.72-5.86,17.58-17.58,17.58H556.5z"/>
		<path class="st0" d="M625.64,120.17c-2.66,0-4.61-0.6-5.86-1.82v22.91l-11.13,5.27h-0.59V73.3c0-11.72,5.86-17.58,17.58-17.58
			h13.48c11.72,0,17.58,5.86,17.58,17.58v29.3c0,11.72-5.86,17.58-17.58,17.58H625.64z M625.64,109.62h13.48
			c3.9,0,5.86-2.34,5.86-7.03V73.3c0-4.69-1.96-7.03-5.86-7.03h-13.48c-3.91,0-5.86,2.34-5.86,7.03v29.3
			C619.78,107.28,621.73,109.62,625.64,109.62z"/>
	</g>
	<g>
		<path class="st0" d="M61.42,157.41H47.71v38.06h-5.6v-38.06H28.44v-4.6h32.99V157.41z"/>
		<path class="st0" d="M77.16,196.05c-4.3,0-7.79-1.41-10.49-4.23c-2.7-2.82-4.04-6.6-4.04-11.32v-1c0-3.14,0.6-5.95,1.8-8.42
			c1.2-2.47,2.88-4.4,5.04-5.8c2.16-1.4,4.5-2.09,7.02-2.09c4.12,0,7.32,1.36,9.61,4.07c2.29,2.71,3.43,6.6,3.43,11.66v2.26H68.04
			c0.08,3.13,0.99,5.65,2.74,7.57c1.75,1.92,3.97,2.89,6.67,2.89c1.91,0,3.53-0.39,4.86-1.17c1.33-0.78,2.49-1.82,3.49-3.11
			l3.31,2.58C86.45,194.01,82.47,196.05,77.16,196.05z M76.48,167.64c-2.19,0-4.02,0.8-5.51,2.39c-1.48,1.59-2.4,3.82-2.75,6.69
			H84.1v-0.41c-0.16-2.75-0.9-4.89-2.23-6.4C80.54,168.39,78.75,167.64,76.48,167.64z"/>
		<path class="st0" d="M108.5,191.63c1.93,0,3.62-0.59,5.07-1.76c1.45-1.17,2.25-2.64,2.4-4.39h5.13c-0.1,1.82-0.72,3.54-1.88,5.19
			c-1.15,1.64-2.69,2.95-4.61,3.93c-1.92,0.98-3.96,1.46-6.11,1.46c-4.32,0-7.75-1.44-10.3-4.32c-2.55-2.88-3.82-6.82-3.82-11.82
			V179c0-3.09,0.57-5.83,1.7-8.23c1.13-2.4,2.76-4.27,4.88-5.6c2.12-1.33,4.62-1.99,7.51-1.99c3.55,0,6.51,1.06,8.86,3.19
			c2.35,2.13,3.61,4.89,3.76,8.29h-5.13c-0.16-2.05-0.93-3.74-2.33-5.05c-1.4-1.32-3.12-1.98-5.17-1.98c-2.75,0-4.89,0.99-6.4,2.97
			c-1.51,1.98-2.27,4.85-2.27,8.6v1.03c0,3.65,0.75,6.46,2.26,8.44C103.56,190.64,105.71,191.63,108.5,191.63z"/>
		<path class="st0" d="M132.62,167.61c2.4-2.95,5.53-4.42,9.38-4.42c6.7,0,10.08,3.78,10.14,11.34v20.95h-5.42v-20.98
			c-0.02-2.29-0.54-3.97-1.57-5.07c-1.03-1.09-2.62-1.64-4.79-1.64c-1.76,0-3.3,0.47-4.63,1.41c-1.33,0.94-2.36,2.17-3.11,3.69
			v22.59h-5.42v-45h5.42V167.61z"/>
		<path class="st0" d="M165.37,163.77l0.18,3.98c2.42-3.05,5.59-4.57,9.49-4.57c6.7,0,10.08,3.78,10.14,11.34v20.95h-5.42v-20.98
			c-0.02-2.29-0.54-3.97-1.57-5.07c-1.03-1.09-2.62-1.64-4.79-1.64c-1.76,0-3.3,0.47-4.63,1.41c-1.33,0.94-2.36,2.17-3.11,3.69
			v22.59h-5.42v-31.7H165.37z"/>
		<path class="st0" d="M191.91,179.33c0-3.11,0.61-5.9,1.83-8.38c1.22-2.48,2.92-4.39,5.1-5.74c2.18-1.35,4.66-2.02,7.46-2.02
			c4.32,0,7.81,1.49,10.47,4.48s4,6.96,4,11.92v0.38c0,3.09-0.59,5.85-1.77,8.31c-1.18,2.45-2.87,4.36-5.07,5.73
			c-2.2,1.37-4.72,2.05-7.57,2.05c-4.3,0-7.78-1.49-10.44-4.48s-4-6.94-4-11.87V179.33z M197.36,179.97c0,3.52,0.82,6.34,2.45,8.47
			c1.63,2.13,3.81,3.19,6.55,3.19c2.75,0,4.94-1.08,6.56-3.24c1.62-2.16,2.43-5.18,2.43-9.07c0-3.48-0.83-6.29-2.48-8.45
			c-1.65-2.16-3.84-3.24-6.58-3.24c-2.68,0-4.83,1.06-6.47,3.19C198.18,172.96,197.36,176.01,197.36,179.97z"/>
		<path class="st0" d="M233.46,195.47h-5.42v-45h5.42V195.47z"/>
		<path class="st0" d="M240.69,179.33c0-3.11,0.61-5.9,1.83-8.38c1.22-2.48,2.92-4.39,5.1-5.74c2.18-1.35,4.66-2.02,7.46-2.02
			c4.32,0,7.81,1.49,10.47,4.48s4,6.96,4,11.92v0.38c0,3.09-0.59,5.85-1.77,8.31c-1.18,2.45-2.87,4.36-5.07,5.73
			c-2.2,1.37-4.72,2.05-7.57,2.05c-4.3,0-7.78-1.49-10.44-4.48s-4-6.94-4-11.87V179.33z M246.14,179.97c0,3.52,0.82,6.34,2.45,8.47
			c1.63,2.13,3.81,3.19,6.55,3.19c2.75,0,4.94-1.08,6.56-3.24c1.62-2.16,2.43-5.18,2.43-9.07c0-3.48-0.83-6.29-2.48-8.45
			c-1.65-2.16-3.84-3.24-6.58-3.24c-2.68,0-4.83,1.06-6.47,3.19C246.96,172.96,246.14,176.01,246.14,179.97z"/>
		<path class="st0" d="M275.06,179.35c0-4.94,1.14-8.87,3.43-11.79c2.29-2.92,5.31-4.38,9.08-4.38c3.87,0,6.88,1.37,9.05,4.1
			l0.26-3.52h4.95v30.94c0,4.1-1.22,7.33-3.65,9.7c-2.43,2.36-5.7,3.54-9.8,3.54c-2.29,0-4.52-0.49-6.71-1.46
			c-2.19-0.98-3.86-2.31-5.01-4.01l2.81-3.25c2.32,2.87,5.17,4.31,8.53,4.31c2.64,0,4.69-0.74,6.17-2.23
			c1.47-1.48,2.21-3.57,2.21-6.27v-2.72c-2.17,2.5-5.13,3.75-8.88,3.75c-3.71,0-6.71-1.49-9.01-4.48
			C276.2,188.58,275.06,184.51,275.06,179.35z M280.51,179.97c0,3.57,0.73,6.38,2.2,8.42c1.46,2.04,3.52,3.06,6.15,3.06
			c3.42,0,5.93-1.55,7.53-4.66v-14.47c-1.66-3.03-4.15-4.54-7.47-4.54c-2.64,0-4.7,1.03-6.18,3.08
			C281.25,172.91,280.51,175.95,280.51,179.97z"/>
		<path class="st0" d="M310.04,155.36c0-0.88,0.27-1.62,0.81-2.23c0.54-0.6,1.33-0.91,2.39-0.91s1.86,0.3,2.4,0.91
			c0.55,0.61,0.82,1.35,0.82,2.23s-0.27,1.61-0.82,2.2c-0.55,0.59-1.35,0.88-2.4,0.88s-1.85-0.29-2.39-0.88
			C310.31,156.97,310.04,156.24,310.04,155.36z M315.9,195.47h-5.42v-31.7h5.42V195.47z"/>
		<path class="st0" d="M337.72,196.05c-4.3,0-7.79-1.41-10.49-4.23c-2.7-2.82-4.04-6.6-4.04-11.32v-1c0-3.14,0.6-5.95,1.8-8.42
			c1.2-2.47,2.88-4.4,5.04-5.8c2.16-1.4,4.5-2.09,7.02-2.09c4.12,0,7.32,1.36,9.61,4.07c2.29,2.71,3.43,6.6,3.43,11.66v2.26h-21.47
			c0.08,3.13,0.99,5.65,2.74,7.57c1.75,1.92,3.97,2.89,6.67,2.89c1.91,0,3.53-0.39,4.86-1.17c1.33-0.78,2.49-1.82,3.49-3.11
			l3.31,2.58C347.02,194.01,343.04,196.05,337.72,196.05z M337.05,167.64c-2.19,0-4.02,0.8-5.51,2.39c-1.48,1.59-2.4,3.82-2.75,6.69
			h15.88v-0.41c-0.16-2.75-0.9-4.89-2.23-6.4C341.11,168.39,339.31,167.64,337.05,167.64z"/>
		<path class="st0" d="M374.81,187.06c0-1.46-0.55-2.6-1.66-3.41c-1.1-0.81-3.03-1.51-5.77-2.09c-2.74-0.59-4.92-1.29-6.53-2.11
			s-2.8-1.8-3.57-2.93c-0.77-1.13-1.16-2.48-1.16-4.04c0-2.6,1.1-4.79,3.3-6.59c2.2-1.8,5-2.7,8.42-2.7c3.59,0,6.51,0.93,8.75,2.78
			c2.24,1.86,3.35,4.23,3.35,7.12h-5.45c0-1.48-0.63-2.76-1.89-3.84c-1.26-1.07-2.85-1.61-4.76-1.61c-1.97,0-3.52,0.43-4.63,1.29
			c-1.11,0.86-1.67,1.98-1.67,3.37c0,1.31,0.52,2.3,1.55,2.96c1.04,0.66,2.9,1.3,5.61,1.9c2.71,0.61,4.9,1.33,6.58,2.17
			c1.68,0.84,2.92,1.85,3.74,3.03c0.81,1.18,1.22,2.62,1.22,4.32c0,2.83-1.13,5.1-3.4,6.81c-2.27,1.71-5.21,2.56-8.82,2.56
			c-2.54,0-4.79-0.45-6.74-1.35c-1.95-0.9-3.48-2.15-4.58-3.76c-1.1-1.61-1.66-3.35-1.66-5.23h5.42c0.1,1.82,0.82,3.26,2.18,4.32
			c1.36,1.06,3.15,1.6,5.38,1.6c2.05,0,3.7-0.41,4.94-1.25C374.19,189.56,374.81,188.45,374.81,187.06z"/>
	</g>
	<rect x="606" y="138" class="st1" width="14" height="11"/>
</g>
<g id="Pipes">
	<rect x="720" y="477" class="st2" width="5" height="42"/>
	<rect x="725" y="514" class="st2" width="204" height="5"/>
	<rect x="924" y="480" class="st2" width="5" height="34"/>
	<rect x="641" y="477" class="st2" width="5" height="145"/>
	<rect x="490" y="617" class="st2" width="151" height="5"/>
	<rect x="641" y="139" class="st2" width="5" height="152"/>
	<rect x="667" y="477" class="st2" width="5" height="211"/>
	
		<rect x="610.78" y="662.79" transform="matrix(0.7071 0.7071 -0.7071 0.7071 705.1739 -215.9404)" class="st2" width="4.95" height="160.92"/>
	<rect x="694" y="477" class="st2" width="5" height="181"/>
	<rect x="881" y="471" transform="matrix(-1.836970e-16 1 -1 -1.836970e-16 1539 -228)" class="st2" width="5" height="369"/>
	<rect x="667" y="139" class="st2" width="5" height="152"/>
	<rect x="694" y="139" class="st2" width="5" height="152"/>
	<rect x="720" y="139" class="st2" width="5" height="152"/>
	<rect x="28" y="134" class="st2" width="697" height="5"/>
</g>
<g id="Layer_1">
	<g id="surface1">
		<path class="st0" d="M124.46,405l-6.54,28.23V768H131V433.23L124.46,405z"/>
		<path class="st3" d="M35.7,451.26l9.7,16.48l88.76-39.77l-19.4-33.95L35.7,451.26z"/>
		<path class="st3" d="M203.52,467.74l9.7-16.48l-79.06-57.23l-19.4,33.95L203.52,467.74z"/>
		<path class="st4" d="M95.36,488.6c-5.34,0-9.7,4.36-9.7,9.7v9.7h77.6v-9.7c0-5.34-4.36-9.7-9.7-9.7H95.36z"/>
		<path class="st3" d="M134.16,314h-19.4l-9.7,97h38.8L134.16,314z"/>
		<path class="st5" d="M124.46,314h-9.7l-8.73,86.33L124.46,411V314z"/>
		<path class="st5" d="M40.55,459.5l4.85,8.24l79.06-35.41V411L40.55,459.5z"/>
		<path class="st5" d="M208.37,459.5l4.85-8.24l-70.32-50.92L124.46,411L208.37,459.5z"/>
		<path class="st0" d="M134.16,411c0,5.36-4.34,9.7-9.7,9.7s-9.7-4.34-9.7-9.7s4.34-9.7,9.7-9.7S134.16,405.64,134.16,411z"/>
	</g>
	<g id="surface1_1_">
		<path class="st6" d="M942.84,493.06l-14.94-19.43l-24.91-10.46l-14.94,29.39V508h54.8V493.06z"/>
		<path class="st7" d="M1005.1,479.11c9.96-9.96-7.47-42.84-38.85-74.22c-31.38-30.88-64.26-48.32-74.22-38.85
			c-9.96,9.46,7.47,42.84,38.85,74.22C962.26,471.14,995.14,488.57,1005.1,479.11z"/>
		<path class="st8" d="M901.49,466.16l-4.98,9.46c11.96,11.46,28.39,20.42,45.83,24.41v-6.97l-3.49-4.48
			c-13.95-4.48-26.9-11.46-36.36-20.92C902.49,467.15,901.99,466.65,901.49,466.16z"/>
		<path class="st9" d="M930.88,440.25c-30.88-30.88-48.32-64.26-38.85-73.72c-24.91,24.91-13.95,76.71,11.46,101.62
			c24.91,24.91,76.71,35.87,101.62,11.46C995.14,488.57,962.26,471.14,930.88,440.25z"/>
		<path class="st10" d="M907.97,413.85l57.29-7.47l-7.47,57.29c2.99,2.49,6.48,4.48,9.46,6.48l7.47-55.79
			c-2.49-2.99-5.48-5.98-8.47-8.97s-5.48-5.48-8.47-7.97l-56.29,7.47C903.48,407.38,905.48,410.37,907.97,413.85z"/>
		<path class="st11" d="M987.67,398.41c0,8.47-6.48,14.94-14.94,14.94s-14.94-6.48-14.94-14.94c0-8.47,6.48-14.94,14.94-14.94
			S987.67,389.94,987.67,398.41z"/>
		
			<rect x="988.27" y="363.09" transform="matrix(0.7071 -0.7071 0.7071 0.7071 33.5717 817.1849)" class="st12" width="29.89" height="9.96"/>
		
			<rect x="1016.95" y="334.11" transform="matrix(0.7071 -0.7071 0.7071 0.7071 62.4633 828.9783)" class="st12" width="29.89" height="9.96"/>
	</g>
	<g id="surface1_2_">
		<path class="st10" d="M1177.96,177.62c2.98-2.98,7.44-2.98,10.42,0c2.98,2.98,2.98,7.44,0,10.42l-10.42,10.42
			c-2.98,2.98-7.44,2.98-10.42,0c-2.98-2.98-2.98-7.44,0-10.42L1177.96,177.62z"/>
		<path class="st2" d="M1272.5,261.74l-52.86-52.86l63.28-63.28l52.86,52.86L1272.5,261.74z"/>
		<path class="st2" d="M1157.11,146.36l-52.86-52.86l63.28-63.28l52.86,52.86L1157.11,146.36z"/>
		<path class="st13" d="M1272.5,240.9l-10.42-10.42l15.63-15.63l10.42,10.42L1272.5,240.9z"/>
		<path class="st13" d="M1251.66,220.06l-10.42-11.17l15.63-15.63l10.42,10.42L1251.66,220.06z"/>
		<path class="st13" d="M1299.3,214.1l-10.42-10.42l15.63-15.63l10.42,10.42L1299.3,214.1z"/>
		<path class="st13" d="M1277.71,193.26l-10.42-10.42l15.63-15.63l10.42,10.42L1277.71,193.26z"/>
		<path class="st13" d="M1157.11,124.77l-10.42-10.42l15.63-15.63l10.42,10.42L1157.11,124.77z"/>
		<path class="st13" d="M1135.52,103.92L1125.1,93.5l15.63-15.63l10.42,10.42L1135.52,103.92z"/>
		<path class="st13" d="M1183.17,98.71l-10.42-10.42l15.63-15.63l10.42,10.42L1183.17,98.71z"/>
		<path class="st13" d="M1162.32,77.87l-10.42-10.42l15.63-15.63l10.42,10.42L1162.32,77.87z"/>
		<path class="st14" d="M1246.44,182.83l-63.28-63.28l10.42-10.42l63.28,63.28L1246.44,182.83z"/>
		<path class="st14" d="M1208.48,218.57c2.98-16.38-1.49-33.5-14.14-46.16c-12.66-12.66-29.78-17.12-46.16-14.14L1208.48,218.57z"/>
		<path class="st15" d="M1172,255.04c-25.31,0-61.04-23.82-61.04-61.04h14.89c0,26.8,27.54,46.16,46.16,46.16V255.04z"/>
		<path class="st15" d="M1172,298.22c-57.32,0-104.22-46.9-104.22-104.22h14.89c0,49.13,40.2,89.33,89.33,89.33V298.22z"/>
		<path class="st16" d="M1236.02,88.29c2.98-2.98,7.44-2.98,10.42,0l31.27,31.27c2.98,2.98,2.98,7.44,0,10.42l-58.07,58.07
			c-2.98,2.98-7.44,2.98-10.42,0l-31.27-31.27c-2.98-2.98-2.98-7.44,0-10.42L1236.02,88.29z"/>
	</g>
	<g id="surface1_4_">
		<path class="st17" d="M650,291h-13.2v186H650V291z M676.4,291h-13.2v186h13.2V291z M702.8,291h-13.2v186h13.2V291z M729.2,291H716
			v186h13.2V291z"/>
		<path class="st18" d="M633.5,453.75h99c7.26,0,13.2-8.37,13.2-18.6v-102.3c0-10.23-5.94-18.6-13.2-18.6h-99
			c-7.26,0-13.2,8.37-13.2,18.6v102.3C620.3,445.38,626.24,453.75,633.5,453.75z"/>
		<path class="st19" d="M650,332.85c-1.99,0-3.3,1.85-3.3,4.65s1.31,4.65,3.3,4.65s3.3-1.85,3.3-4.65S651.99,332.85,650,332.85z
			 M663.2,332.85c-1.99,0-3.3,1.85-3.3,4.65s1.31,4.65,3.3,4.65s3.3-1.85,3.3-4.65S665.19,332.85,663.2,332.85z M676.4,332.85
			c-1.99,0-3.3,1.85-3.3,4.65s1.31,4.65,3.3,4.65c1.99,0,3.3-1.85,3.3-4.65S678.39,332.85,676.4,332.85z M689.6,332.85
			c-1.99,0-3.3,1.85-3.3,4.65s1.31,4.65,3.3,4.65c1.99,0,3.3-1.85,3.3-4.65S691.59,332.85,689.6,332.85z M702.8,332.85
			c-1.99,0-3.3,1.85-3.3,4.65s1.31,4.65,3.3,4.65s3.3-1.85,3.3-4.65S704.79,332.85,702.8,332.85z M716,332.85
			c-1.99,0-3.3,1.85-3.3,4.65s1.31,4.65,3.3,4.65s3.3-1.85,3.3-4.65S717.99,332.85,716,332.85z M729.2,332.85
			c-1.99,0-3.3,1.85-3.3,4.65s1.31,4.65,3.3,4.65s3.3-1.85,3.3-4.65S731.19,332.85,729.2,332.85z M636.8,332.85
			c-1.99,0-3.3,1.85-3.3,4.65s1.31,4.65,3.3,4.65s3.3-1.85,3.3-4.65S638.79,332.85,636.8,332.85z M729.2,351.45
			c-1.99,0-3.3,1.85-3.3,4.65s1.31,4.65,3.3,4.65s3.3-1.85,3.3-4.65S731.19,351.45,729.2,351.45z M729.2,370.05
			c-1.99,0-3.3,1.85-3.3,4.65c0,2.8,1.31,4.65,3.3,4.65s3.3-1.85,3.3-4.65C732.5,371.9,731.19,370.05,729.2,370.05z M636.8,407.25
			c-1.99,0-3.3,1.85-3.3,4.65s1.31,4.65,3.3,4.65s3.3-1.85,3.3-4.65S638.79,407.25,636.8,407.25z M636.8,351.45
			c-1.99,0-3.3,1.85-3.3,4.65s1.31,4.65,3.3,4.65s3.3-1.85,3.3-4.65S638.79,351.45,636.8,351.45z M636.8,370.05
			c-1.99,0-3.3,1.85-3.3,4.65c0,2.8,1.31,4.65,3.3,4.65s3.3-1.85,3.3-4.65C640.1,371.9,638.79,370.05,636.8,370.05z M636.8,388.65
			c-1.99,0-3.3,1.85-3.3,4.65c0,2.8,1.31,4.65,3.3,4.65s3.3-1.85,3.3-4.65C640.1,390.5,638.79,388.65,636.8,388.65z M650,425.85
			c-1.99,0-3.3,1.85-3.3,4.65s1.31,4.65,3.3,4.65s3.3-1.85,3.3-4.65S651.99,425.85,650,425.85z M716,425.85
			c-1.99,0-3.3,1.85-3.3,4.65s1.31,4.65,3.3,4.65s3.3-1.85,3.3-4.65S717.99,425.85,716,425.85z M729.2,388.65
			c-1.99,0-3.3,1.85-3.3,4.65c0,2.8,1.31,4.65,3.3,4.65s3.3-1.85,3.3-4.65C732.5,390.5,731.19,388.65,729.2,388.65z M729.2,407.25
			c-1.99,0-3.3,1.85-3.3,4.65s1.31,4.65,3.3,4.65s3.3-1.85,3.3-4.65S731.19,407.25,729.2,407.25z M636.8,425.85
			c-1.99,0-3.3,1.85-3.3,4.65s1.31,4.65,3.3,4.65s3.3-1.85,3.3-4.65S638.79,425.85,636.8,425.85z M729.2,425.85
			c-1.99,0-3.3,1.85-3.3,4.65s1.31,4.65,3.3,4.65s3.3-1.85,3.3-4.65S731.19,425.85,729.2,425.85z M663.2,425.85
			c-1.99,0-3.3,1.85-3.3,4.65s1.31,4.65,3.3,4.65s3.3-1.85,3.3-4.65S665.19,425.85,663.2,425.85z M676.4,425.85
			c-1.99,0-3.3,1.85-3.3,4.65s1.31,4.65,3.3,4.65c1.99,0,3.3-1.85,3.3-4.65S678.39,425.85,676.4,425.85z M689.6,425.85
			c-1.99,0-3.3,1.85-3.3,4.65s1.31,4.65,3.3,4.65c1.99,0,3.3-1.85,3.3-4.65S691.59,425.85,689.6,425.85z M702.8,425.85
			c-1.99,0-3.3,1.85-3.3,4.65s1.31,4.65,3.3,4.65s3.3-1.85,3.3-4.65S704.79,425.85,702.8,425.85z"/>
	</g>
	<g id="surface1_3_">
		<path class="st18" d="M608,317.33v133.33c0,4.59,3.74,8.33,8.33,8.33h133.33c4.59,0,8.33-3.74,8.33-8.33V317.33
			c0-4.59-3.74-8.33-8.33-8.33H616.33C611.74,309,608,312.74,608,317.33z"/>
		<path class="st19" d="M645.5,325.67c0,2.51-1.66,4.17-4.17,4.17c-2.51,0-4.17-1.66-4.17-4.17c0-2.51,1.66-4.17,4.17-4.17
			C643.84,321.5,645.5,323.16,645.5,325.67z M658,321.5c-2.51,0-4.17,1.66-4.17,4.17c0,2.51,1.66,4.17,4.17,4.17
			s4.17-1.66,4.17-4.17C662.17,323.16,660.51,321.5,658,321.5z M674.67,321.5c-2.51,0-4.17,1.66-4.17,4.17
			c0,2.51,1.66,4.17,4.17,4.17c2.51,0,4.17-1.66,4.17-4.17C678.83,323.16,677.17,321.5,674.67,321.5z M691.33,321.5
			c-2.51,0-4.17,1.66-4.17,4.17c0,2.51,1.66,4.17,4.17,4.17c2.51,0,4.17-1.66,4.17-4.17C695.5,323.16,693.84,321.5,691.33,321.5z
			 M708,321.5c-2.51,0-4.17,1.66-4.17,4.17c0,2.51,1.66,4.17,4.17,4.17s4.17-1.66,4.17-4.17C712.17,323.16,710.51,321.5,708,321.5z
			 M724.67,321.5c-2.51,0-4.17,1.66-4.17,4.17c0,2.51,1.66,4.17,4.17,4.17c2.51,0,4.17-1.66,4.17-4.17
			C728.83,323.16,727.17,321.5,724.67,321.5z M624.67,338.17c-2.51,0-4.17,1.66-4.17,4.17c0,2.51,1.66,4.17,4.17,4.17
			c2.51,0,4.17-1.66,4.17-4.17C628.83,339.83,627.17,338.17,624.67,338.17z M641.33,338.17c-2.51,0-4.17,1.66-4.17,4.17
			c0,2.51,1.66,4.17,4.17,4.17c2.51,0,4.17-1.66,4.17-4.17C645.5,339.83,643.84,338.17,641.33,338.17z M658,338.17
			c-2.51,0-4.17,1.66-4.17,4.17c0,2.51,1.66,4.17,4.17,4.17s4.17-1.66,4.17-4.17C662.17,339.83,660.51,338.17,658,338.17z
			 M674.67,338.17c-2.51,0-4.17,1.66-4.17,4.17c0,2.51,1.66,4.17,4.17,4.17c2.51,0,4.17-1.66,4.17-4.17
			C678.83,339.83,677.17,338.17,674.67,338.17z M691.33,338.17c-2.51,0-4.17,1.66-4.17,4.17c0,2.51,1.66,4.17,4.17,4.17
			c2.51,0,4.17-1.66,4.17-4.17C695.5,339.83,693.84,338.17,691.33,338.17z M708,338.17c-2.51,0-4.17,1.66-4.17,4.17
			c0,2.51,1.66,4.17,4.17,4.17s4.17-1.66,4.17-4.17C712.17,339.83,710.51,338.17,708,338.17z M724.67,338.17
			c-2.51,0-4.17,1.66-4.17,4.17c0,2.51,1.66,4.17,4.17,4.17c2.51,0,4.17-1.66,4.17-4.17C728.83,339.83,727.17,338.17,724.67,338.17z
			 M741.33,338.17c-2.51,0-4.17,1.66-4.17,4.17c0,2.51,1.66,4.17,4.17,4.17c2.51,0,4.17-1.66,4.17-4.17
			C745.5,339.83,743.84,338.17,741.33,338.17z M624.67,354.83c-2.51,0-4.17,1.66-4.17,4.17s1.66,4.17,4.17,4.17
			c2.51,0,4.17-1.66,4.17-4.17S627.17,354.83,624.67,354.83z M641.33,354.83c-2.51,0-4.17,1.66-4.17,4.17s1.66,4.17,4.17,4.17
			c2.51,0,4.17-1.66,4.17-4.17S643.84,354.83,641.33,354.83z M724.67,354.83c-2.51,0-4.17,1.66-4.17,4.17s1.66,4.17,4.17,4.17
			c2.51,0,4.17-1.66,4.17-4.17S727.17,354.83,724.67,354.83z M624.67,371.5c-2.51,0-4.17,1.66-4.17,4.17c0,2.51,1.66,4.17,4.17,4.17
			c2.51,0,4.17-1.66,4.17-4.17C628.83,373.16,627.17,371.5,624.67,371.5z M641.33,371.5c-2.51,0-4.17,1.66-4.17,4.17
			c0,2.51,1.66,4.17,4.17,4.17c2.51,0,4.17-1.66,4.17-4.17C645.5,373.16,643.84,371.5,641.33,371.5z M724.67,371.5
			c-2.51,0-4.17,1.66-4.17,4.17c0,2.51,1.66,4.17,4.17,4.17c2.51,0,4.17-1.66,4.17-4.17C728.83,373.16,727.17,371.5,724.67,371.5z
			 M741.33,354.83c-2.51,0-4.17,1.66-4.17,4.17s1.66,4.17,4.17,4.17c2.51,0,4.17-1.66,4.17-4.17S743.84,354.83,741.33,354.83z
			 M741.33,371.5c-2.51,0-4.17,1.66-4.17,4.17c0,2.51,1.66,4.17,4.17,4.17c2.51,0,4.17-1.66,4.17-4.17
			C745.5,373.16,743.84,371.5,741.33,371.5z M624.67,388.17c-2.51,0-4.17,1.66-4.17,4.17c0,2.51,1.66,4.17,4.17,4.17
			c2.51,0,4.17-1.66,4.17-4.17C628.83,389.83,627.17,388.17,624.67,388.17z M641.33,388.17c-2.51,0-4.17,1.66-4.17,4.17
			c0,2.51,1.66,4.17,4.17,4.17c2.51,0,4.17-1.66,4.17-4.17C645.5,389.83,643.84,388.17,641.33,388.17z M724.67,388.17
			c-2.51,0-4.17,1.66-4.17,4.17c0,2.51,1.66,4.17,4.17,4.17c2.51,0,4.17-1.66,4.17-4.17C728.83,389.83,727.17,388.17,724.67,388.17z
			 M624.67,404.83c-2.51,0-4.17,1.66-4.17,4.17s1.66,4.17,4.17,4.17c2.51,0,4.17-1.66,4.17-4.17S627.17,404.83,624.67,404.83z
			 M641.33,404.83c-2.51,0-4.17,1.66-4.17,4.17s1.66,4.17,4.17,4.17c2.51,0,4.17-1.66,4.17-4.17S643.84,404.83,641.33,404.83z
			 M724.67,404.83c-2.51,0-4.17,1.66-4.17,4.17s1.66,4.17,4.17,4.17c2.51,0,4.17-1.66,4.17-4.17S727.17,404.83,724.67,404.83z
			 M741.33,388.17c-2.51,0-4.17,1.66-4.17,4.17c0,2.51,1.66,4.17,4.17,4.17c2.51,0,4.17-1.66,4.17-4.17
			C745.5,389.83,743.84,388.17,741.33,388.17z M741.33,404.83c-2.51,0-4.17,1.66-4.17,4.17s1.66,4.17,4.17,4.17
			c2.51,0,4.17-1.66,4.17-4.17S743.84,404.83,741.33,404.83z M624.67,421.5c-2.51,0-4.17,1.66-4.17,4.17c0,2.51,1.66,4.17,4.17,4.17
			c2.51,0,4.17-1.66,4.17-4.17C628.83,423.16,627.17,421.5,624.67,421.5z M641.33,421.5c-2.51,0-4.17,1.66-4.17,4.17
			c0,2.51,1.66,4.17,4.17,4.17c2.51,0,4.17-1.66,4.17-4.17C645.5,423.16,643.84,421.5,641.33,421.5z M658,421.5
			c-2.51,0-4.17,1.66-4.17,4.17c0,2.51,1.66,4.17,4.17,4.17s4.17-1.66,4.17-4.17C662.17,423.16,660.51,421.5,658,421.5z
			 M674.67,421.5c-2.51,0-4.17,1.66-4.17,4.17c0,2.51,1.66,4.17,4.17,4.17c2.51,0,4.17-1.66,4.17-4.17
			C678.83,423.16,677.17,421.5,674.67,421.5z M691.33,421.5c-2.51,0-4.17,1.66-4.17,4.17c0,2.51,1.66,4.17,4.17,4.17
			c2.51,0,4.17-1.66,4.17-4.17C695.5,423.16,693.84,421.5,691.33,421.5z M708,421.5c-2.51,0-4.17,1.66-4.17,4.17
			c0,2.51,1.66,4.17,4.17,4.17s4.17-1.66,4.17-4.17C712.17,423.16,710.51,421.5,708,421.5z M724.67,421.5
			c-2.51,0-4.17,1.66-4.17,4.17c0,2.51,1.66,4.17,4.17,4.17c2.51,0,4.17-1.66,4.17-4.17C728.83,423.16,727.17,421.5,724.67,421.5z
			 M641.33,438.17c-2.51,0-4.17,1.66-4.17,4.17c0,2.51,1.66,4.17,4.17,4.17c2.51,0,4.17-1.66,4.17-4.17
			C645.5,439.83,643.84,438.17,641.33,438.17z M658,438.17c-2.51,0-4.17,1.66-4.17,4.17c0,2.51,1.66,4.17,4.17,4.17
			s4.17-1.66,4.17-4.17C662.17,439.83,660.51,438.17,658,438.17z M674.67,438.17c-2.51,0-4.17,1.66-4.17,4.17
			c0,2.51,1.66,4.17,4.17,4.17c2.51,0,4.17-1.66,4.17-4.17C678.83,439.83,677.17,438.17,674.67,438.17z M691.33,438.17
			c-2.51,0-4.17,1.66-4.17,4.17c0,2.51,1.66,4.17,4.17,4.17c2.51,0,4.17-1.66,4.17-4.17C695.5,439.83,693.84,438.17,691.33,438.17z
			 M708,438.17c-2.51,0-4.17,1.66-4.17,4.17c0,2.51,1.66,4.17,4.17,4.17s4.17-1.66,4.17-4.17
			C712.17,439.83,710.51,438.17,708,438.17z M724.67,438.17c-2.51,0-4.17,1.66-4.17,4.17c0,2.51,1.66,4.17,4.17,4.17
			c2.51,0,4.17-1.66,4.17-4.17C728.83,439.83,727.17,438.17,724.67,438.17z M741.33,421.5c-2.51,0-4.17,1.66-4.17,4.17
			c0,2.51,1.66,4.17,4.17,4.17c2.51,0,4.17-1.66,4.17-4.17C745.5,423.16,743.84,421.5,741.33,421.5z"/>
		<path class="st20" d="M703.83,409h-41.67c-2.08,0-4.17-2.08-4.17-4.17v-41.67c0-2.08,2.08-4.17,4.17-4.17h41.67
			c2.08,0,4.17,2.08,4.17,4.17v41.67C708,406.92,705.92,409,703.83,409z"/>
	</g>
	<g id="laptop">
		<path class="st0" d="M490.38,667.96H360.63v-90.1c0-2,1.62-3.6,3.6-3.6h122.54c2,0,3.6,1.6,3.6,3.6V667.96z"/>
		<path class="st9" d="M367.83,581.46h115.33v72.08H367.83V581.46z"/>
		<path class="st16" d="M339,696.79h173V704H339V696.79z"/>
		<path class="st21" d="M490.38,660.75H360.63L339,696.79h173L490.38,660.75z"/>
		<path class="st10" d="M367.83,667.96h115.33l10.81,21.63H357.02L367.83,667.96z"/>
		<polygon class="st22" points="398.63,689.58 396.67,696.79 454.33,696.79 452.37,689.58 		"/>
	</g>
	<g id="surface1_5_">
		<path class="st0" d="M1084.74,685.49h-11.16c-3.36,0-5.58-2.79-5.58-5.58v-50.21c0-2.79,2.22-5.58,5.58-5.58h11.16
			c2.79,0,5.58,2.79,5.58,5.58v50.21C1090.32,682.7,1087.53,685.49,1084.74,685.49z"/>
		<path class="st23" d="M1274.44,635.27l-19.53-42.96c-1.68-4.47-6.15-7.26-10.59-7.26h-143.95c-2.79,0-5.03,1.68-5.58,4.47
			c-2.79,10.59-9.48,31.8-10.05,90.38v16.74l16.74,11.16l22.32,5.58h172.96l12.27-5.58c9.48,0,20.09-9.48,24.56-13.95
			c1.66-1.68,2.22-3.9,2.22-6.15v-31.8c0-3.33-1.68-6.12-4.47-7.8C1322.98,644.75,1306.8,637.5,1274.44,635.27z"/>
		<path class="st20" d="M1101.48,707.81l16.74,5.58h178.54l12.27-5.58c9.48,0,20.09-9.48,24.56-13.95c1.66-1.68,2.22-3.9,2.22-6.15
			v-7.8h-16.74l-2.79-5.01c-1.68-3.36-5.58-6.15-9.48-6.15h-31.25c-3.9,0-7.8,2.22-9.48,6.15l-19.53,27.33h-72.53l-11.16-28.46
			c-2.22-2.79-5.58-5.01-8.94-5.01h-40.17c-3.9,0-7.8,2.22-9.48,6.15l-2.79,5.01h-16.74v16.74L1101.48,707.81z"/>
		<path class="st10" d="M1107.06,716.17c0-13.95,11.16-25.11,25.11-25.11c13.95,0,25.11,11.16,25.11,25.11
			c0,13.95-11.16,25.11-25.11,25.11C1118.21,741.28,1107.06,730.12,1107.06,716.17z M1288.39,741.28
			c13.95,0,25.11-11.16,25.11-25.11c0-13.95-11.16-25.11-25.11-25.11c-13.95,0-25.11,11.16-25.11,25.11
			C1263.28,730.12,1274.44,741.28,1288.39,741.28z"/>
		<path class="st22" d="M1118.21,716.17c0-7.8,6.15-13.95,13.95-13.95s13.95,6.15,13.95,13.95c0,7.8-6.15,13.95-13.95,13.95
			S1118.21,723.98,1118.21,716.17z M1288.39,730.12c7.8,0,13.95-6.15,13.95-13.95c0-7.8-6.15-13.95-13.95-13.95
			s-13.95,6.15-13.95,13.95C1274.44,723.98,1280.58,730.12,1288.39,730.12z"/>
		<path class="st24" d="M1207.49,702.23h-11.16V596.22h11.16V702.23z M1151.69,596.22h-11.16v72.53h11.16V596.22z"/>
		<path class="st25" d="M1331.34,648.65c-1.68-0.54-3.9-1.66-6.69-2.79v17.3c0,3.36,2.79,5.58,5.58,5.58h5.58v-12.84
			C1335.81,652.58,1334.13,649.79,1331.34,648.65z"/>
		<path class="st20" d="M1140.53,596.22v39.06h-42.41c1.68-20.64,4.47-31.8,6.15-39.06H1140.53z M1244.86,596.22h-37.38v39.06h54.68
			L1244.86,596.22z M1151.69,596.22v39.06h44.64v-39.06H1151.69z"/>
	</g>
	<g id="rss">
		<g id="surface1_6_">
			<path class="st26" d="M349.14,473c8.32,0,14.86,6.54,14.86,14.86v77.28c0,8.32-6.54,14.86-14.86,14.86h-77.28
				c-8.32,0-14.86-6.54-14.86-14.86v-77.28c0-8.32,6.54-14.86,14.86-14.86H349.14z"/>
			<path class="st17" d="M338.74,544.33c-5.65,0-10.4,4.76-10.4,10.4c0,5.65,4.76,10.4,10.4,10.4s10.4-4.76,10.4-10.4
				C349.14,549.09,344.38,544.33,338.74,544.33z"/>
			<path class="st17" d="M349.14,517.58v11.89h-2.97c-18.72,0-32.69,13.97-32.69,32.69v2.97h-11.89v-2.97
				c0-25.56,19.02-44.58,44.58-44.58H349.14z"/>
			<path class="st17" d="M349.14,487.86v11.89h-2.97c-34.48,0-62.42,27.94-62.42,62.42v2.97h-11.89v-2.97
				c0-41.02,33.29-74.31,74.31-74.31H349.14z"/>
		</g>
	</g>
	<g id="surface1_7_">
		<path class="st27" d="M353.38,360.51c-7.26,4.18-16.54,1.68-20.72-5.58c-4.18-7.26-1.68-16.54,5.58-20.72
			c7.26-4.18,16.54-1.68,20.72,5.58C363.14,347.05,360.64,356.33,353.38,360.51z"/>
		<path class="st27" d="M360.75,370.27c-5.09,2.93-11.58,1.18-14.5-3.91c-2.93-5.09-1.18-11.58,3.91-14.5
			c5.09-2.93,11.58-1.18,14.5,3.91C367.58,360.85,365.83,367.34,360.75,370.27z"/>
		<path class="st27" d="M344.3,344.73c-7.26,4.18-16.54,1.68-20.72-5.58c-4.18-7.26-1.68-16.54,5.58-20.72
			c7.26-4.18,16.54-1.68,20.72,5.58C354.06,331.27,351.56,340.55,344.3,344.73z"/>
		<path class="st27" d="M335.02,325.56c-5.09,2.93-11.58,1.18-14.5-3.91c-2.93-5.09-1.18-11.58,3.91-14.5
			c5.09-2.93,11.58-1.18,14.5,3.91C341.85,316.14,340.1,322.63,335.02,325.56z"/>
		<path class="st28" d="M348.37,321.38c5.82-3.35,13.23-1.35,16.58,4.47c3.35,5.82,1.35,13.23-4.47,16.58s-24.47,0.08-24.47,0.08
			S342.55,324.72,348.37,321.38z"/>
		<path class="st19" d="M351.39,326.64c2.91-1.67,6.61-0.67,8.29,2.23c1.67,2.91,0.67,6.61-2.23,8.29
			c-2.91,1.67-10.92-0.72-10.92-0.72S348.49,328.31,351.39,326.64z"/>
		<path class="st29" d="M403.2,282.82c-7.89,4.54-49.97,28.76-49.97,28.76l18.16,31.56c0,0,42.07-24.21,49.97-28.76
			c4.16-2.39,9.43-11.25,13.5-19.11l-8.35-14.52C417.67,280.32,407.35,280.43,403.2,282.82z"/>
		<path class="st30" d="M378.96,356.29l-2.32-16.17l31.56-18.16l-10.83,23.74L378.96,356.29z"/>
		<path class="st30" d="M345.66,298.43l12.82,10.13l31.56-18.16l-25.97-2.56L345.66,298.43z"/>
		<path class="st30" d="M426.52,280.75l8.35,14.52c3.65-7.06,6.34-13.32,6.34-13.32S434.45,281.13,426.52,280.75z"/>
		<path class="st30" d="M371.39,343.14l-8.29-2.23L351,319.86l2.23-8.29L371.39,343.14z"/>
		<path class="st31" d="M412.67,305.38c-2.9,1.67-6.61,0.67-8.29-2.23c-1.67-2.91-0.66-6.62,2.23-8.29
			c2.91-1.67,6.61-0.67,8.29,2.23C416.58,300,415.58,303.7,412.67,305.38z"/>
		<path class="st31" d="M396.9,314.45c-2.91,1.67-6.61,0.67-8.29-2.23c-1.67-2.91-0.67-6.61,2.23-8.29
			c2.91-1.67,6.61-0.67,8.29,2.23C400.81,309.07,399.81,312.78,396.9,314.45z"/>
		<path class="st31" d="M381.12,323.54c-2.91,1.67-6.61,0.67-8.29-2.23c-1.67-2.91-0.67-6.61,2.23-8.29
			c2.91-1.67,6.61-0.67,8.29,2.23C385.03,318.16,384.03,321.86,381.12,323.54z"/>
	</g>
	<g>
	</g>
	<g>
	</g>
	<g>
	</g>
	<g>
	</g>
	<g>
	</g>
	<g>
	</g>
	<g>
	</g>
	<g>
	</g>
	<g>
	</g>
	<g>
	</g>
	<g>
	</g>
	<g>
	</g>
	<g>
	</g>
	<g>
	</g>
	<g>
	</g>
</g>
</svg>
